# xmcd
#
# Track frame offsets:
#	150
#	15312
#	26811
#	35802
#	45465
#	61052
#	70918
#	85186
#	97200
#	106485
#	117870
#	129739
#	140494
#	152150
#	162715
#	174129
#	187421
#	202191
#	215020
#	226822
#	242310
#	254475
#	266364
#	280023
#	290853
#	300571
#
# Disc length: 4134 seconds
# Revision: 2
# Processed by: cddbd v1.5.2PL0 Copyright (c) Steve Scherf et al.
# Submitted via: dBpowerAMP V12.0
#
DISCID=8310241a
DTITLE=Various Artist - Hickory Records
DYEAR=2001
DGENRE=Country
TTITLE0=Whitey Shafer - All My Ex's Live In Texas
TTITLE1=Roy Acuff - Blue Eyes Crying In The Rain
TTITLE2=Newbeats - Bread And Butter
TTITLE3=Rusty and Doug Kershaw - Diggy Lliggy Lo
TTITLE4=Whitey Shafer - Does Fort Worth Ever Cross Your Mind
TTITLE5=Roy Acuff - Fireball Mail
TTITLE6=Charley Pride - Have I Got Some Blues For You
TTITLE7=Don Gibson - I Can't Stop Loving You
TTITLE8=Bob Luman - I Love You Because
TTITLE9=Don Gibson - I'd Be A Legend In My Time
TTITLE10=Jason Petty - I'm So Lonesome I Could Cry
TTITLE11=Don Gibson - Lonesome Number One
TTITLE12=Rusty and Doug Kershaw - Louisiana Man
TTITLE13=Sue Thompson - Norman
TTITLE14=Don Gibson - Oh, Lonesome Me
TTITLE15=Newbeats - Run Baby Run (Back Into My Arms)
TTITLE16=Sue Thompson - Sad Movies (Make Me Cry)
TTITLE17=Don Gibson - Snap Your Fingers
TTITLE18=Don Everly - So Sad (To Watch Good Love Go Bad)
TTITLE19=Don Gibson - Sweet Dreams
TTITLE20=Frank Ifield - Sweet Memories
TTITLE21=Ernie Ashworth - Talk Back Trembling Lips
TTITLE22=Whiter Shafer - That's The Way Love Goes
TTITLE23=Gene and Debbe - Then You Can Tell Me Goodbye
TTITLE24=Kris Jensen - Torture
TTITLE25=Leona Williams - When I Stop Dreaming
EXTD=
EXTT0=
EXTT1=
EXTT2=
EXTT3=
EXTT4=
EXTT5=
EXTT6=
EXTT7=
EXTT8=
EXTT9=
EXTT10=
EXTT11=
EXTT12=
EXTT13=
EXTT14=
EXTT15=
EXTT16=
EXTT17=
EXTT18=
EXTT19=
EXTT20=
EXTT21=
EXTT22=
EXTT23=
EXTT24=
EXTT25=
PLAYORDER=
